<svg xmlns="http://www.w3.org/2000/svg" viewBox="0 0 600 400" width="600" height="400">
<defs><marker id="arrowhead" markerWidth="6" markerHeight="4" refX="3" refY="2" orient="auto"><polygon points="0 0, 6 2, 0 4" fill="#333"/></marker></defs>
<defs>
  <style>
    text { font-family: Arial, sans-serif; }
    .title { font-size: 13px; font-weight: bold; fill: #222; }
    .label { font-size: 9px; fill: #555; }
    .legend { font-size: 8px; fill: #444; }
  </style>
</defs>
<rect width="600" height="400" fill="#f5f5f0" rx="4"/>
<text x="300" y="18" text-anchor="middle" class="title">Site Plan: Warner Street (COLD_CORRIDOR)</text>
<rect x="40" y="170" width="520" height="60" fill="#ccc" rx="3" opacity="0.5"/>
<text x="45" y="165" class="label">Road (PCI=49.5)</text>
<rect x="40" y="150" width="520" height="18" fill="#e8e4d0" rx="2" opacity="0.6"/>
<rect x="40" y="232" width="520" height="18" fill="#e8e4d0" rx="2" opacity="0.6"/>
<text x="45" y="258" class="label">Sidewalk (Fair)</text>
<circle cx="320.7" cy="208.6" r="6" fill="none" stroke="#E53935" stroke-width="2"/>
<line x1="312.7" y1="208.6" x2="328.7" y2="208.6" stroke="#E53935" stroke-width="1.5"/>
<line x1="320.7" y1="200.6" x2="320.7" y2="216.6" stroke="#E53935" stroke-width="1.5"/>
<circle cx="308.0" cy="193.6" r="6" fill="#228B22" opacity="0.7"/>
<circle cx="324.2" cy="188.1" r="4" fill="#D2B48C" opacity="0.6" stroke="#333" stroke-width="0.5"/>
<circle cx="321.5" cy="185.4" r="4" fill="#BDB76B" opacity="0.6" stroke="#333" stroke-width="0.5"/>
<circle cx="325.7" cy="183.5" r="6" fill="#228B22" opacity="0.7"/>
<circle cx="230.5" cy="232.1" r="4" fill="#9370DB" opacity="0.6" stroke="#333" stroke-width="0.5"/>
<circle cx="213.1" cy="188.0" r="6" fill="#228B22" opacity="0.7"/>
<circle cx="184.8" cy="225.0" r="6" fill="#228B22" opacity="0.7"/>
<circle cx="186.7" cy="245.3" r="6" fill="#228B22" opacity="0.7"/>
<circle cx="192.3" cy="257.2" r="4" fill="#9370DB" opacity="0.6" stroke="#333" stroke-width="0.5"/>
<circle cx="204.0" cy="146.3" r="6" fill="#228B22" opacity="0.7"/>
<circle cx="422.2" cy="136.8" r="6" fill="#228B22" opacity="0.7"/>
<circle cx="173.4" cy="176.9" r="6" fill="#228B22" opacity="0.7"/>
<circle cx="450.2" cy="124.4" r="4" fill="#9370DB" opacity="0.6" stroke="#333" stroke-width="0.5"/>
<circle cx="453.1" cy="117.2" r="4" fill="#9370DB" opacity="0.6" stroke="#333" stroke-width="0.5"/>
<circle cx="197.0" cy="112.3" r="6" fill="#228B22" opacity="0.7"/>
<circle cx="166.2" cy="127.7" r="6" fill="#228B22" opacity="0.7"/>
<circle cx="153.4" cy="282.0" r="4" fill="#BDB76B" opacity="0.6" stroke="#333" stroke-width="0.5"/>
<circle cx="152.4" cy="286.0" r="4" fill="#D2B48C" opacity="0.6" stroke="#333" stroke-width="0.5"/>
<circle cx="435.8" cy="98.9" r="6" fill="#228B22" opacity="0.7"/>
<circle cx="156.0" cy="304.4" r="4" fill="#D2B48C" opacity="0.6" stroke="#333" stroke-width="0.5"/>
<circle cx="153.8" cy="303.5" r="4" fill="#D2B48C" opacity="0.6" stroke="#333" stroke-width="0.5"/>
<circle cx="152.8" cy="305.0" r="4" fill="#DA70D6" opacity="0.6" stroke="#333" stroke-width="0.5"/>
<circle cx="474.5" cy="102.2" r="4" fill="#9370DB" opacity="0.6" stroke="#333" stroke-width="0.5"/>
<circle cx="135.4" cy="295.6" r="4" fill="#DA70D6" opacity="0.6" stroke="#333" stroke-width="0.5"/>
<circle cx="456.7" cy="87.4" r="6" fill="#228B22" opacity="0.7"/>
<circle cx="160.6" cy="97.5" r="6" fill="#228B22" opacity="0.7"/>
<circle cx="142.2" cy="311.9" r="4" fill="#DA70D6" opacity="0.6" stroke="#333" stroke-width="0.5"/>
<circle cx="142.9" cy="312.6" r="4" fill="#D2B48C" opacity="0.6" stroke="#333" stroke-width="0.5"/>
<circle cx="141.1" cy="311.4" r="4" fill="#D2B48C" opacity="0.6" stroke="#333" stroke-width="0.5"/>
<circle cx="125.5" cy="302.1" r="4" fill="#9370DB" opacity="0.6" stroke="#333" stroke-width="0.5"/>
<rect x="274.5" y="196.6" width="24" height="24" fill="none" stroke="#1565C0" stroke-width="2" stroke-dasharray="5,3" rx="3"/>
<text x="286.5" y="228.6" text-anchor="middle" class="label" fill="#1565C0">🧂 Proposed</text>
<line x1="45" y1="378" x2="218.3" y2="378" stroke="#333" stroke-width="2"/>
<text x="48" y="374" class="legend">50m</text>
<line x1="575" y1="50" x2="575" y2="35" stroke="#333" stroke-width="1.5" marker-end="url(#arrowhead)"/>
<text x="575" y="32" text-anchor="middle" class="legend" font-weight="bold">N</text>
<rect x="8" y="40" width="8" height="8" fill="#228B22" rx="1"/>
<text x="20" y="47" class="legend">TREE</text>
<rect x="8" y="52" width="8" height="8" fill="#D2B48C" rx="1"/>
<text x="20" y="59" class="legend">CURB</text>
<rect x="8" y="64" width="8" height="8" fill="#BDB76B" rx="1"/>
<text x="20" y="71" class="legend">SIDEWALK</text>
<rect x="8" y="76" width="8" height="8" fill="#9370DB" rx="1"/>
<text x="20" y="83" class="legend">RAMP</text>
<rect x="8" y="88" width="8" height="8" fill="#DA70D6" rx="1"/>
<text x="20" y="95" class="legend">STAND_ALONE_PEDESTRIAN_HEAD</text>
<rect x="480" y="375" width="110" height="18" fill="#4CAF50" rx="3"/>
<text x="535" y="387" text-anchor="middle" class="legend" fill="white" font-weight="bold">ALL CHECKS PASS</text>
</svg>